<svg width="40" height="40" viewBox="0 0 40 40" xmlns="http://www.w3.org/2000/svg">
  <defs>
    <linearGradient id="logoGradient" x1="0%" y1="0%" x2="100%" y2="100%">
      <stop offset="0%" style="stop-color:#4A90E2;stop-opacity:1" />
      <stop offset="100%" style="stop-color:#9B59B6;stop-opacity:1" />
    </linearGradient>
  </defs>
  
  <!-- メインの「a」文字 -->
  <path d="M8 28C8 26.8954 8.89543 26 10 26H30C31.1046 26 32 26.8954 32 28C32 29.1046 31.1046 30 30 30H10C8.89543 30 8 29.1046 8 28Z" fill="url(#logoGradient)"/>
  <path d="M20 8C15.5817 8 12 11.5817 12 16C12 20.4183 15.5817 24 20 24C24.4183 24 28 20.4183 28 16C28 11.5817 24.4183 8 20 8ZM20 22C16.6863 22 14 19.3137 14 16C14 12.6863 16.6863 10 20 10C23.3137 10 26 12.6863 26 16C26 19.3137 23.3137 22 20 22Z" fill="url(#logoGradient)"/>
  
  <!-- 上部の円（「i」のドット） -->
  <circle cx="28" cy="12" r="3" fill="url(#logoGradient)"/>
</svg> 